----------------------------------------------------------
| The.Sheeple.Beg.Enslave.Me.Destroy.Me.Kill.Me.2012.AVC |
-----------------------------------------------------------


 -------- 
 | PLOT |
 --------

You want reality? Do you want the cold hard truth in your face... We are going to bring you the best analysis we can, as close to the truth as humanly possible!!! In this shocking film Alex details various tyrannies ranging from Aborting babies up to age 3, the Treyvon scandal, The DU Military Poisoning The UN plan of depopulation and world government and the GMO DNA manipulations and genetic deformities 


----------
 | INFO |
----------
VIDEO:
ID : 1
Format : AVC
Format/Info : Advanced Video Codec
Format profile : Baseline@L3.0
Format settings, CABAC : No
Format settings, ReFrames : 1 frame
Codec ID : avc1
Codec ID/Info : Advanced Video Coding
Duration : 39mn 41s
Bit rate : 502 Kbps
Maximum bit rate : 1 771 Kbps
Width : 640 pixels
Height : 360 pixels
Display aspect ratio : 16:9
Frame rate mode : Constant
Frame rate : 29.970 fps
Color space : YUV
Chroma subsampling : 4:2:0
Bit depth : 8 bits
Scan type : Progressive
Bits/(Pixel*Frame) : 0.073
Stream size : 143 MiB (84%)
Audio:
Format : AAC
Format/Info : Advanced Audio Codec
Format profile : LC
Codec ID : 40
Duration : 39mn 41s
Bit rate mode : Variable
Bit rate : 96.0 Kbps
Maximum bit rate : 169 Kbps
Channel(s) : 2 channels
Channel positions : Front: L R
Sampling rate : 44.1 KHz
Compression mode : Lossy
Stream size : 27.3 MiB (16%)